<mxfile host="app.diagrams.net" agent="Mozilla/5.0 (Windows NT 10.0; Win64; x64) AppleWebKit/537.36 (KHTML, like Gecko) Chrome/131.0.0.0 Safari/537.36" version="25.0.3">
  <diagram name="Página-1" id="6XiReFQTUvImekbgtCb1">
    <mxGraphModel dx="819" dy="470" grid="1" gridSize="10" guides="1" tooltips="1" connect="1" arrows="1" fold="1" page="1" pageScale="1" pageWidth="2339" pageHeight="3300" math="0" shadow="0">
      <root>
        <mxCell id="0" />
        <mxCell id="1" parent="0" />
        <mxCell id="_MY4YBeoH8W7uu3_xqhw-1" style="edgeStyle=none;curved=1;rounded=0;orthogonalLoop=1;jettySize=auto;html=1;exitX=0.5;exitY=1;exitDx=0;exitDy=0;entryX=0.5;entryY=0;entryDx=0;entryDy=0;fontSize=12;startSize=8;endSize=8;endArrow=none;endFill=0;" edge="1" parent="1" source="_MY4YBeoH8W7uu3_xqhw-2">
          <mxGeometry relative="1" as="geometry">
            <mxPoint x="178" y="517" as="targetPoint" />
          </mxGeometry>
        </mxCell>
        <mxCell id="_MY4YBeoH8W7uu3_xqhw-2" value="USUARIO" style="rounded=0;whiteSpace=wrap;html=1;" vertex="1" parent="1">
          <mxGeometry x="118" y="156" width="120" height="60" as="geometry" />
        </mxCell>
        <mxCell id="_MY4YBeoH8W7uu3_xqhw-3" style="edgeStyle=none;curved=1;rounded=0;orthogonalLoop=1;jettySize=auto;html=1;exitX=0.5;exitY=1;exitDx=0;exitDy=0;entryX=0.5;entryY=0;entryDx=0;entryDy=0;fontSize=12;startSize=8;endSize=8;endArrow=none;endFill=0;" edge="1" parent="1" source="_MY4YBeoH8W7uu3_xqhw-4">
          <mxGeometry relative="1" as="geometry">
            <mxPoint x="360" y="517" as="targetPoint" />
          </mxGeometry>
        </mxCell>
        <mxCell id="_MY4YBeoH8W7uu3_xqhw-4" value="INTERFAZ DE USUARIO" style="rounded=0;whiteSpace=wrap;html=1;" vertex="1" parent="1">
          <mxGeometry x="300" y="156" width="120" height="60" as="geometry" />
        </mxCell>
        <mxCell id="_MY4YBeoH8W7uu3_xqhw-5" style="edgeStyle=none;curved=1;rounded=0;orthogonalLoop=1;jettySize=auto;html=1;exitX=0.5;exitY=1;exitDx=0;exitDy=0;entryX=0.5;entryY=0;entryDx=0;entryDy=0;fontSize=12;startSize=8;endSize=8;endArrow=none;endFill=0;" edge="1" parent="1" source="_MY4YBeoH8W7uu3_xqhw-6">
          <mxGeometry relative="1" as="geometry">
            <mxPoint x="542" y="517" as="targetPoint" />
          </mxGeometry>
        </mxCell>
        <mxCell id="_MY4YBeoH8W7uu3_xqhw-6" value="INTERFAZ DE SERVICIO" style="rounded=0;whiteSpace=wrap;html=1;" vertex="1" parent="1">
          <mxGeometry x="482" y="156" width="120" height="60" as="geometry" />
        </mxCell>
        <mxCell id="_MY4YBeoH8W7uu3_xqhw-13" value="" style="endArrow=classic;html=1;rounded=0;fontSize=12;startSize=8;endSize=8;curved=1;" edge="1" parent="1">
          <mxGeometry width="50" height="50" relative="1" as="geometry">
            <mxPoint x="180" y="240" as="sourcePoint" />
            <mxPoint x="360" y="240" as="targetPoint" />
          </mxGeometry>
        </mxCell>
        <mxCell id="_MY4YBeoH8W7uu3_xqhw-14" value="&lt;font style=&quot;font-size: 10px;&quot;&gt;Pulsar apartado &quot;Pedidos&quot;&lt;/font&gt;" style="text;html=1;align=center;verticalAlign=middle;resizable=0;points=[];autosize=1;strokeColor=none;fillColor=none;fontSize=16;" vertex="1" parent="1">
          <mxGeometry x="200" y="216" width="140" height="30" as="geometry" />
        </mxCell>
        <mxCell id="_MY4YBeoH8W7uu3_xqhw-15" value="" style="endArrow=classic;html=1;rounded=0;fontSize=12;startSize=8;endSize=8;curved=1;" edge="1" parent="1">
          <mxGeometry width="50" height="50" relative="1" as="geometry">
            <mxPoint x="360" y="270" as="sourcePoint" />
            <mxPoint x="540" y="270" as="targetPoint" />
          </mxGeometry>
        </mxCell>
        <mxCell id="_MY4YBeoH8W7uu3_xqhw-16" value="&lt;font style=&quot;font-size: 10px;&quot;&gt;Pedir los pedidos&lt;/font&gt;" style="text;html=1;align=center;verticalAlign=middle;resizable=0;points=[];autosize=1;strokeColor=none;fillColor=none;fontSize=16;" vertex="1" parent="1">
          <mxGeometry x="400" y="246" width="100" height="30" as="geometry" />
        </mxCell>
        <mxCell id="_MY4YBeoH8W7uu3_xqhw-17" value="" style="endArrow=classic;html=1;rounded=0;fontSize=12;startSize=8;endSize=8;curved=1;dashed=1;" edge="1" parent="1">
          <mxGeometry width="50" height="50" relative="1" as="geometry">
            <mxPoint x="540" y="310" as="sourcePoint" />
            <mxPoint x="360" y="310" as="targetPoint" />
          </mxGeometry>
        </mxCell>
        <mxCell id="_MY4YBeoH8W7uu3_xqhw-18" value="&lt;font style=&quot;font-size: 10px;&quot;&gt;Información de Pedidos&lt;/font&gt;" style="text;html=1;align=center;verticalAlign=middle;resizable=0;points=[];autosize=1;strokeColor=none;fillColor=none;fontSize=16;" vertex="1" parent="1">
          <mxGeometry x="385" y="286" width="130" height="30" as="geometry" />
        </mxCell>
        <mxCell id="_MY4YBeoH8W7uu3_xqhw-19" value="" style="endArrow=classic;html=1;rounded=0;fontSize=12;startSize=8;endSize=8;curved=1;dashed=1;" edge="1" parent="1">
          <mxGeometry width="50" height="50" relative="1" as="geometry">
            <mxPoint x="360" y="340" as="sourcePoint" />
            <mxPoint x="180" y="340" as="targetPoint" />
          </mxGeometry>
        </mxCell>
        <mxCell id="_MY4YBeoH8W7uu3_xqhw-20" value="&lt;font style=&quot;font-size: 10px;&quot;&gt;Información de Pedidos&lt;/font&gt;" style="text;html=1;align=center;verticalAlign=middle;resizable=0;points=[];autosize=1;strokeColor=none;fillColor=none;fontSize=16;" vertex="1" parent="1">
          <mxGeometry x="205" y="316" width="130" height="30" as="geometry" />
        </mxCell>
      </root>
    </mxGraphModel>
  </diagram>
</mxfile>
